<svg width="27" height="27" viewBox="0 0 27 27" fill="none" xmlns="http://www.w3.org/2000/svg">
<path d="M24.1714 18.0664C24.3425 17.8952 24.3425 17.617 24.1714 17.4459C24.0002 17.2747 23.722 17.2747 23.5509 17.4459L18.9818 22.0149L18.9818 3.96694C18.9827 3.95378 18.9836 3.94149 18.9836 3.92833C18.9836 3.6861 18.787 3.4895 18.5448 3.4895L3.13853 3.4895C2.8963 3.4895 2.69971 3.6861 2.69971 3.92833C2.69971 4.17056 2.8963 4.36715 3.13853 4.36715L18.1077 4.36715L18.1077 22.0149L13.5387 17.4459C13.3675 17.2747 13.0893 17.2747 12.9182 17.4459C12.747 17.617 12.747 17.8952 12.9182 18.0664L18.2341 23.3823C18.4052 23.5534 18.6834 23.5534 18.8546 23.3823L24.1705 18.0664L24.1714 18.0664Z" fill="white" stroke="white" stroke-width="0.554751"/>
</svg>
