<svg width="49" height="49" viewBox="0 0 49 49" fill="none" xmlns="http://www.w3.org/2000/svg">
<g clip-path="url(#clip0_1060_272)">
<path d="M10.7266 18.4689H13.595V13.871H23.0571V35.5495H19.3375V38.4206H29.6451V35.5495H25.9255V13.871H35.3876V18.4689H38.256V11H10.7266V18.4689Z" fill="#814CEC" stroke="#140C1C" stroke-width="0.8"/>
<path d="M45.9508 40.2631V8.73693C47.7212 8.13679 48.9994 6.45896 48.9994 4.48685C48.9994 2.01278 46.9885 0 44.5165 0C42.548 0 40.8731 1.27703 40.272 3.04645H8.72804C8.12695 1.27703 6.45198 0 4.48341 0C2.01155 0 0.000488281 2.01278 0.000488281 4.48694C0.000488281 6.45906 1.27877 8.13679 3.04914 8.73703V40.2632C1.27877 40.8633 0.000488281 42.541 0.000488281 44.5132C0.000488281 46.9873 2.01145 49 4.48341 49C6.43983 49 8.10637 47.7388 8.71694 45.9863H40.2831C40.8936 47.7387 42.5602 49 44.5166 49C46.9885 49 48.9995 46.9872 48.9995 44.5132C48.9994 42.541 47.7212 40.8633 45.9508 40.2631ZM40.2575 43.1152H8.74249C8.30275 41.7766 7.25004 40.7148 5.91769 40.2631V8.73693C7.23913 8.28896 8.28533 7.24065 8.73139 5.91739H40.2686C40.7147 7.24065 41.7609 8.28896 43.0823 8.73693V40.2631C41.7501 40.7148 40.6973 41.7766 40.2575 43.1152ZM44.5165 2.87103C45.4067 2.87103 46.131 3.59597 46.131 4.48694C46.131 5.37792 45.4067 6.10286 44.5165 6.10286C43.6263 6.10286 42.902 5.37792 42.902 4.48694C42.902 3.59597 43.6264 2.87103 44.5165 2.87103ZM4.48341 2.87103C5.37363 2.87103 6.09789 3.59597 6.09789 4.48694C6.09789 5.37792 5.37363 6.10286 4.48341 6.10286C3.5932 6.10286 2.86894 5.37792 2.86894 4.48694C2.86894 3.59597 3.5933 2.87103 4.48341 2.87103ZM4.48341 46.129C3.5932 46.129 2.86894 45.4041 2.86894 44.5131C2.86894 43.6221 3.5932 42.8972 4.48341 42.8972C5.37363 42.8972 6.09789 43.6221 6.09789 44.5131C6.09789 45.4041 5.37363 46.129 4.48341 46.129ZM44.5165 46.129C43.6263 46.129 42.902 45.4041 42.902 44.5131C42.902 43.6221 43.6263 42.8972 44.5165 42.8972C45.4067 42.8972 46.131 43.6221 46.131 44.5131C46.131 45.4041 45.4067 46.129 44.5165 46.129Z" fill="#814CEC" stroke="#140C1C" stroke-width="0.8"/>
</g>
<defs>
<clipPath id="clip0_1060_272">
<rect width="49" height="49" fill="white"/>
</clipPath>
</defs>
</svg>
