<svg width="48" height="48" viewBox="0 0 48 48" fill="none" xmlns="http://www.w3.org/2000/svg">
<g clip-path="url(#clip0_88_127)">
<path d="M46.7727 18.2283C46.1534 17.6063 45.3537 17.1954 44.4874 17.0542C43.6211 16.913 42.7323 17.0486 41.9476 17.4418C39.2051 10.184 32.2058 5 24 5C15.7942 5 8.79276 10.1862 6.05022 17.4451C5.41184 17.1241 4.70176 16.9724 3.98794 17.0043C3.27412 17.0363 2.58047 17.251 1.97335 17.6278C1.36624 18.0046 0.865995 18.5309 0.520492 19.1563C0.174989 19.7818 -0.00420609 20.4854 5.61758e-05 21.2V28.3999C0.000193773 29.1517 0.202154 29.8896 0.58485 30.5367C0.967546 31.1838 1.51694 31.7162 2.17567 32.0785C2.83439 32.4407 3.57829 32.6194 4.32969 32.596C5.08108 32.5726 5.81241 32.3479 6.44731 31.9454C7.58566 34.5116 9.27102 36.798 11.3855 38.6447C13.4999 40.4913 15.9923 41.8537 18.6884 42.6363C18.7751 42.8608 18.9276 43.0539 19.126 43.1902C19.3244 43.3265 19.5593 43.3996 19.8 43.3999H28.2C28.5183 43.3999 28.8235 43.2735 29.0485 43.0484C29.2736 42.8234 29.4 42.5182 29.4 42.1999V39.7999C29.4 39.4817 29.2736 39.1764 29.0485 38.9514C28.8235 38.7264 28.5183 38.5999 28.2 38.5999H19.8C19.4818 38.5999 19.1765 38.7264 18.9515 38.9514C18.7264 39.1764 18.6 39.4817 18.6 39.7999V40.0934C11.9804 37.8363 7.20004 31.5734 7.20004 24.2C7.20004 14.9371 14.736 7.39999 24 7.39999C33.264 7.39999 40.8 14.9371 40.8 24.2C40.8014 25.9478 40.5298 27.6851 39.9949 29.349C39.9391 29.5063 39.9172 29.6736 39.9305 29.8399C39.9454 30.0256 40.0033 30.2053 40.0996 30.3647C40.5369 31.1936 41.2394 31.8521 42.0948 32.235C42.9502 32.6179 43.9093 32.7031 44.8188 32.4771C45.7284 32.251 46.536 31.7267 47.1126 30.9878C47.6892 30.249 48.0016 29.3383 47.9999 28.401V21.2011C48.0021 20.649 47.8947 20.102 47.684 19.5918C47.4734 19.0815 47.1636 18.6181 46.7727 18.2283ZM4.20005 30.1999C3.72284 30.1994 3.26533 30.0095 2.9279 29.6721C2.59046 29.3347 2.40063 28.8772 2.40005 28.3999V21.2C2.39909 20.8601 2.49463 20.527 2.67557 20.2394C2.8565 19.9517 3.11539 19.7214 3.42211 19.5751C3.72884 19.4288 4.0708 19.3726 4.4082 19.4131C4.7456 19.4535 5.06459 19.589 5.32804 19.8036C4.54883 23.0156 4.63314 26.3765 5.57241 29.5454C5.40643 29.7493 5.1972 29.9139 4.95986 30.0271C4.72253 30.1403 4.463 30.1993 4.20005 30.1999ZM45.6 28.3999C45.5994 28.8772 45.4095 29.3347 45.0721 29.6721C44.7347 30.0095 44.2772 30.1994 43.8 30.1999C43.5384 30.1985 43.2804 30.139 43.0446 30.0258C42.8088 29.9126 42.6011 29.7486 42.4363 29.5454C43.3711 26.3788 43.4553 23.0219 42.6807 19.8123C43.368 19.2734 44.4458 19.2876 45.0807 19.9214C45.2475 20.0896 45.3793 20.2892 45.4685 20.5086C45.5576 20.7281 45.6023 20.9631 45.6 21.2V28.3999Z" fill="#814CEC" stroke="#140C1C" stroke-width="0.6"/>
<path d="M35.388 30.5704C35.7889 29.7724 35.9984 28.8921 36 27.9991V20.4031C35.9982 18.8649 35.3865 17.3902 34.2989 16.3024C33.2114 15.2146 31.7367 14.6026 30.1985 14.6006H17.8015C16.2633 14.6026 14.7887 15.2146 13.7011 16.3024C12.6135 17.3902 12.0018 18.8649 12 20.4031V27.9991C12.0018 29.5372 12.6135 31.0118 13.7011 32.0994C14.7888 33.187 16.2634 33.7988 17.8015 33.8005H29.8909L35.3596 37.2184C35.5691 37.3495 35.8141 37.4128 36.0609 37.3995C36.3078 37.3862 36.5445 37.297 36.7387 37.1441C36.933 36.9912 37.0752 36.782 37.1461 36.5451C37.2169 36.3083 37.2129 36.0554 37.1345 35.8209L35.388 30.5704ZM30.8727 31.5795C30.682 31.4603 30.4616 31.3972 30.2367 31.3973H30.1484H17.8015C16.9003 31.3961 16.0363 31.0378 15.3987 30.4009C14.7612 29.764 14.402 28.9003 14.4 27.9991V20.4031C14.4012 19.5013 14.7599 18.6366 15.3975 17.9988C16.0351 17.361 16.8996 17.002 17.8015 17.0006H30.1985C31.1004 17.002 31.9649 17.361 32.6025 17.9988C33.2401 18.6366 33.5988 19.5013 33.6 20.4031V27.9991C33.5968 28.6398 33.4123 29.2666 33.0676 29.8067C32.9727 29.9569 32.9122 30.1264 32.8907 30.3027C32.8692 30.4791 32.8872 30.6581 32.9433 30.8267L33.8062 33.4144L30.8727 31.5795Z" fill="#814CEC" stroke="#140C1C" stroke-width="0.6"/>
<path d="M19.2 25.4C19.8628 25.4 20.4 24.8627 20.4 24.2C20.4 23.5373 19.8628 23 19.2 23C18.5373 23 18 23.5373 18 24.2C18 24.8627 18.5373 25.4 19.2 25.4Z" fill="#814CEC"/>
<path d="M28.8 25.4C29.4627 25.4 30 24.8627 30 24.2C30 23.5373 29.4627 23 28.8 23C28.1373 23 27.6 23.5373 27.6 24.2C27.6 24.8627 28.1373 25.4 28.8 25.4Z" fill="#814CEC"/>
<path d="M24 25.4C24.6627 25.4 25.2 24.8627 25.2 24.2C25.2 23.5373 24.6627 23 24 23C23.3373 23 22.8 23.5373 22.8 24.2C22.8 24.8627 23.3373 25.4 24 25.4Z" fill="#814CEC"/>
</g>
<defs>
<clipPath id="clip0_88_127">
<rect width="48" height="48" fill="white"/>
</clipPath>
</defs>
</svg>
