<svg width="52" height="52" viewBox="0 0 52 52" fill="none" xmlns="http://www.w3.org/2000/svg">
<path d="M26 2C12.7661 2 2 12.7661 2 26C2 39.2339 12.7661 50 26 50C39.2339 50 50 39.2339 50 26C50 12.7661 39.2339 2 26 2ZM47.1242 24.5882H43.5165C43.1621 24.5882 42.8635 24.3278 42.8219 23.9812C42.4859 21.1682 41.4595 18.5932 39.9412 16.3936L43.1727 13.6308C45.4294 16.7551 46.8546 20.5153 47.1242 24.5882ZM41.3706 11.4567L38.1518 14.2089C35.3671 11.3431 31.5906 9.47177 27.4111 9.12447V4.87577C32.8951 5.23859 37.8115 7.69647 41.3706 11.4567ZM24.5882 4.87577V9.12447C20.4532 9.46753 16.7155 11.3049 13.9393 14.12L10.7169 11.3642C14.2689 7.65694 19.1501 5.23576 24.5882 4.87577ZM8.90141 13.5264L12.1329 16.2899C10.5736 18.5113 9.51906 21.1238 9.17812 23.9812C9.13718 24.3278 8.83859 24.5882 8.48424 24.5882H4.87647C5.14824 20.4701 6.60165 16.6711 8.90141 13.5264ZM26 47.1765C14.7984 47.1765 5.60565 38.432 4.87577 27.4118H8.48353C10.2673 27.4118 11.7715 26.0805 11.9819 24.3158C12.8282 17.2273 18.8544 11.8824 26 11.8824C33.1456 11.8824 39.1718 17.2273 40.0181 24.3151C40.2285 26.0805 41.732 27.4118 43.5158 27.4118H47.1235C46.3944 38.432 37.2016 47.1765 26 47.1765Z" fill="#814CEC" stroke="#140C1C" stroke-width="0.7"/>
<path d="M24.2132 35.6764C24.6657 35.79 25.1231 35.8465 25.577 35.8465C26.5617 35.8465 27.5316 35.5811 28.3991 35.0644C29.6669 34.3076 30.5641 33.1027 30.9255 31.6712C31.5135 29.3411 30.4716 19.17 30.2563 17.1554C30.1935 16.5674 29.7714 16.0811 29.1982 15.9356C28.6243 15.7909 28.0215 16.0182 27.6883 16.5067C26.5419 18.1782 20.7961 26.6347 20.2081 28.9641C19.8467 30.3957 20.0641 31.8822 20.8208 33.15C21.5775 34.4178 22.7817 35.3149 24.2132 35.6764ZM22.9455 29.6559C23.2017 28.6408 25.5269 24.8728 27.8252 21.3724C28.1867 25.5441 28.4443 29.9636 28.1881 30.9794C28.0116 31.6797 27.5718 32.2691 26.9521 32.6397C26.333 33.0095 25.6052 33.1161 24.905 32.9389C24.2048 32.7625 23.6154 32.3234 23.2455 31.7037C22.8749 31.0825 22.7683 30.3561 22.9455 29.6559Z" fill="#814CEC" stroke="#140C1C" stroke-width="0.7"/>
<path d="M30.9411 38.7061H21.0587C20.2794 38.7061 19.647 39.3385 19.647 40.1178C19.647 40.8971 20.2794 41.5296 21.0587 41.5296H30.9411C31.7204 41.5296 32.3529 40.8971 32.3529 40.1178C32.3529 39.3385 31.7204 38.7061 30.9411 38.7061Z" fill="#814CEC" stroke="#140C1C" stroke-width="0.7"/>
</svg>
