<svg width="23" height="23" viewBox="0 0 23 23" fill="none" xmlns="http://www.w3.org/2000/svg">
<g clip-path="url(#clip0_17_163)">
<g clip-path="url(#clip1_17_163)">
<path d="M21.5852 13.5037L19.4243 12.2542C19.4524 11.9737 19.4666 11.6916 19.4666 11.4103C19.4666 11.1291 19.4524 10.8469 19.4243 10.5665L21.5852 9.31699C21.9956 9.07967 22.1363 8.55412 21.8993 8.14308L19.3251 3.67764C19.0883 3.2669 18.5632 3.12575 18.1529 3.36311L15.992 4.6126C15.5341 4.28122 15.0461 3.99845 14.5326 3.76702V1.26971C14.5326 0.795082 14.1485 0.410339 13.6746 0.410339H8.52613C8.05223 0.410339 7.66804 0.795082 7.66804 1.26971V3.76697C7.15457 3.9984 6.66653 4.28118 6.20865 4.61255L4.04775 3.36307C3.63732 3.12575 3.11254 3.26656 2.87561 3.67764L0.301394 8.14304C0.064421 8.55408 0.205058 9.07963 0.615452 9.31695L2.77639 10.5665C2.74829 10.8469 2.73411 11.129 2.73411 11.4103C2.73411 11.6917 2.74829 11.9738 2.77639 12.2542L0.615452 13.5037C0.205058 13.741 0.064421 14.2666 0.301394 14.6776L2.87561 19.1431C3.11258 19.5541 3.63736 19.6948 4.04775 19.4577L6.20865 18.2082C6.66653 18.5395 7.15457 18.8223 7.66804 19.0537V21.551C7.66804 22.0256 8.05223 22.4103 8.52613 22.4103H13.6746C14.1485 22.4103 14.5326 22.0256 14.5326 21.551V19.0537C15.0461 18.8223 15.5341 18.5395 15.992 18.2081L18.1529 19.4576C18.564 19.6953 19.0886 19.5533 19.3251 19.1431L21.8993 14.6776C22.1363 14.2666 21.9956 13.741 21.5852 13.5037ZM18.2679 17.5394L16.3501 16.4306C16.0378 16.25 15.6461 16.2842 15.3698 16.5163C14.7745 17.0162 14.1051 17.404 13.3804 17.6689C13.0418 17.7927 12.8165 18.1152 12.8165 18.4762V20.6916H9.38417V18.4762C9.38417 18.1152 9.15889 17.7927 8.82029 17.6689C8.09554 17.4039 7.42621 17.0162 6.83093 16.5162C6.55459 16.2842 6.16289 16.2499 5.85055 16.4305L3.93277 17.5394L2.21664 14.5624L4.1333 13.4542C4.44517 13.2739 4.61142 12.9177 4.54958 12.5624C4.48367 12.1836 4.45024 11.796 4.45024 11.4103C4.45024 11.0246 4.48367 10.637 4.54958 10.2582C4.61142 9.90291 4.44517 9.54674 4.1333 9.36644L2.21664 8.25819L3.93277 5.28123L5.85055 6.39013C6.16285 6.57073 6.55455 6.53648 6.83093 6.30441C7.42621 5.80446 8.09558 5.41667 8.82029 5.15177C9.15893 5.02802 9.38417 4.7055 9.38417 4.34447V2.12909H12.8165V4.34452C12.8165 4.7055 13.0418 5.02802 13.3804 5.15181C14.1051 5.41676 14.7745 5.80455 15.3698 6.30445C15.6462 6.53652 16.0379 6.57081 16.3501 6.39017L18.2679 5.28128L19.984 8.25824L18.0674 9.36649C17.7555 9.54679 17.5893 9.90295 17.6511 10.2582C17.717 10.6371 17.7504 11.0247 17.7504 11.4103C17.7504 11.7959 17.717 12.1836 17.6511 12.5625C17.5893 12.9178 17.7556 13.2739 18.0674 13.4542L19.984 14.5624L18.2679 17.5394ZM11.9589 9.92237L14.2058 8.62515C14.6168 8.38783 15.1424 8.52864 15.3797 8.93968C15.617 9.35072 15.4762 9.87631 15.0652 10.1136L12.8191 11.4103C12.8191 12.3581 12.0481 13.1291 11.1003 13.1291C10.1526 13.1291 9.38159 12.3581 9.38159 11.4103C9.38159 10.4626 10.1526 9.69159 11.1003 9.69159C11.4129 9.69159 11.7061 9.77589 11.9589 9.92237ZM15.4869 13.6837C14.6312 15.3294 12.9503 16.3517 11.1003 16.3517C8.37565 16.3517 6.15894 14.135 6.15894 11.4103C6.15894 8.68565 8.37565 6.46893 11.1003 6.46893C11.575 6.46893 11.9597 6.85368 11.9597 7.32831C11.9597 7.80294 11.575 8.18768 11.1003 8.18768C9.32337 8.18768 7.87769 9.63337 7.87769 11.4103C7.87769 13.1873 9.32337 14.633 11.1003 14.633C12.3067 14.633 13.4032 13.9654 13.9621 12.8908C14.181 12.4697 14.7 12.3059 15.121 12.5248C15.5421 12.7437 15.7059 13.2626 15.4869 13.6837Z" fill="white"/>
</g>
</g>
<defs>
<clipPath id="clip0_17_163">
<rect width="22.1966" height="22.1966" fill="white"/>
</clipPath>
<clipPath id="clip1_17_163">
<rect width="22" height="22" fill="white" transform="translate(0.100342 0.410339)"/>
</clipPath>
</defs>
</svg>
