<svg width="38" height="39" viewBox="0 0 38 39" fill="none" xmlns="http://www.w3.org/2000/svg">
<g clip-path="url(#clip0_33_7)">
<path d="M22.1228 10.6446L22.0325 11.0754C17.2551 10.0739 13.521 6.33983 12.5196 1.56233C12.4438 1.20072 12.1248 0.94166 11.7552 0.94166C11.3856 0.94166 11.0666 1.20074 10.9908 1.56239L10.9908 1.56241C9.98936 6.33983 6.2553 10.0738 1.47788 11.0752L1.47787 11.0752C1.11619 11.151 0.857059 11.47 0.857059 11.8396C0.857059 12.2091 1.11614 12.5281 1.47785 12.6039L1.47789 12.604C6.25524 13.6055 9.98914 17.3395 10.9906 22.1169L10.9906 22.1169C11.0664 22.4786 11.3854 22.7377 11.755 22.7377C12.1245 22.7377 12.4435 22.4786 12.5193 22.1169L12.5194 22.1169C13.5209 17.3394 17.255 13.6055 22.0324 12.6042L22.1227 13.035L22.0324 12.6042C22.3941 12.5284 22.6532 12.2094 22.6532 11.8398L22.1228 10.6446ZM22.1228 10.6446L22.0325 11.0754M22.1228 10.6446L22.0325 11.0754M10.5597 22.2072C9.59416 17.6008 5.99388 14.0004 1.38757 13.0348C0.82195 12.9163 0.416864 12.4174 0.416864 11.8396C0.416864 11.2617 0.822025 10.7629 1.38757 10.6443L10.5597 22.2072ZM10.5597 22.2072C10.6783 22.7727 11.177 23.1779 11.755 23.1779M10.5597 22.2072L11.755 23.1779M22.0325 11.0754C22.394 11.1512 22.6532 11.4702 22.6532 11.8398L22.0325 11.0754ZM11.755 23.1779C12.3328 23.1779 12.8317 22.7728 12.9502 22.2072L11.755 23.1779Z" fill="white" stroke="white" stroke-width="0.88039"/>
<path d="M20.1029 33.2101C17.9326 33.6651 16.2361 35.3614 15.7811 37.5318C15.6626 38.0975 15.1638 38.5025 14.5859 38.5025C14.008 38.5025 13.5092 38.0973 13.3907 37.5318L20.1029 33.2101ZM20.1029 33.2101C20.6685 33.0916 21.0737 32.5928 21.0737 32.0149M20.1029 33.2101L21.0737 32.0149M15.3504 26.5883L15.3504 26.5883C15.2746 26.2266 14.9556 25.9675 14.586 25.9675C14.2164 25.9675 13.8975 26.2265 13.8217 26.5882L13.8217 26.5882C13.3308 28.9296 11.5007 30.7596 9.15938 31.2504L9.15936 31.2504C8.79768 31.3262 8.53855 31.6453 8.53855 32.0148C8.53855 32.3844 8.79763 32.7034 9.15935 32.7792L9.15938 32.7792C11.5007 33.27 13.3307 35.1001 13.8215 37.4415L13.8215 37.4415C13.8973 37.8032 14.2163 38.0623 14.5859 38.0623C14.9555 38.0623 15.2745 37.8033 15.3503 37.4415L15.3503 37.4415C15.8412 35.1001 17.6712 33.2701 20.0126 32.7793L20.0127 32.7793C20.3743 32.7035 20.6335 32.3844 20.6335 32.0149C20.6335 31.6454 20.3744 31.3264 20.0126 31.2505L15.3504 26.5883ZM15.3504 26.5883C15.8413 28.9298 17.6713 30.7597 20.0126 31.2505L15.3504 26.5883ZM21.0737 32.0149C21.0737 31.437 20.6686 30.9383 20.1029 30.8197L21.0737 32.0149Z" fill="white" stroke="white" stroke-width="0.88039"/>
<path d="M36.5101 19.9431L36.5101 19.9431C36.8717 20.0189 37.1308 20.3379 37.1308 20.7075C37.1308 21.077 36.8717 21.396 36.51 21.4719C33.4054 22.1226 30.979 24.5491 30.3281 27.6536L30.3281 27.6537C30.2523 28.0154 29.9333 28.2745 29.5637 28.2745C29.1941 28.2745 28.8751 28.0154 28.7993 27.6537L28.7993 27.6537C28.1486 24.5491 25.7221 22.1226 22.6176 21.4718C22.2558 21.3959 21.9967 21.0769 21.9967 20.7074C21.9967 20.3378 22.2559 20.0188 22.6175 19.943L22.6175 19.943C25.7222 19.2922 28.1486 16.8657 28.7995 13.7611L28.7995 13.7611C28.8753 13.3994 29.1942 13.1404 29.5638 13.1404C29.9334 13.1404 30.2524 13.3995 30.3282 13.7612L30.3282 13.7612C30.979 16.8657 33.4055 19.2923 36.5101 19.9431ZM28.3686 13.6708C27.7536 16.6044 25.4608 18.8972 22.5272 19.5121L28.3686 13.6708Z" fill="white" stroke="white" stroke-width="0.88039"/>
</g>
<defs>
<clipPath id="clip0_33_7">
<rect width="38" height="38" fill="white" transform="translate(0 0.5)"/>
</clipPath>
</defs>
</svg>
