<svg width="40" height="40" viewBox="0 0 40 40" fill="none" xmlns="http://www.w3.org/2000/svg">
<g clip-path="url(#clip0_49_218)">
<g clip-path="url(#clip1_49_218)">
<path d="M34.0535 12.4697L34.162 12.3458L35.1381 11.3696L36.9045 9.60325C37.7102 8.79753 38.1595 7.72841 38.1595 6.59732C38.1595 5.46622 37.7102 4.3971 36.9045 3.59139L36.4087 3.09557C34.7972 1.48414 32.0082 1.48414 30.3968 3.09557L28.6304 4.86194L3.52938 29.963L3.35894 30.1334L1.60807 38.392L9.86662 36.6411L34.0535 12.4697ZM31.4969 4.18018C32.5195 3.17304 34.2859 3.15754 35.3085 4.18018L35.8199 4.6915C36.3312 5.20282 36.6101 5.86908 36.6101 6.59732C36.6101 7.32556 36.3312 7.99182 35.8199 8.50314L34.0535 10.2695L29.7305 5.94655L31.4969 4.18018ZM28.6304 7.04666L30.2419 8.65808L6.78322 32.1167L5.1718 30.5053L28.6304 7.04666ZM3.62235 36.3777L4.53652 32.0702L7.92981 35.4635L3.62235 36.3777ZM9.49475 34.8282L7.88333 33.2168L31.342 9.75819L32.9534 11.3696L9.49475 34.8282ZM11.8189 19.4887L0.833344 8.50314L8.50311 0.833374L19.4887 11.819L16.1574 15.0728L15.0573 13.9727L17.242 11.788L15.0573 9.58775L11.8034 12.8571L10.7033 11.757L13.9572 8.50314L11.7724 6.30292L9.57223 8.50314L8.47212 7.40303L10.6723 5.20282L8.48761 3.01809L3.00257 8.50314L12.9035 18.4041L11.8034 19.4887H11.8189ZM39.1667 31.4969L31.4969 39.1667L20.5113 28.1811L21.6114 27.0965L31.4969 36.982L36.9819 31.4969L34.7972 29.3122L31.5279 32.5661L30.4278 31.466L33.6971 28.1966L31.4969 26.0119L29.3122 28.1966L28.2121 27.0965L30.3968 24.8963L28.1966 22.7116L24.9427 25.9654L23.8426 24.8653L28.1656 20.4804L39.1512 31.466L39.1667 31.4969Z" fill="white"/>
</g>
</g>
<defs>
<clipPath id="clip0_49_218">
<rect width="40" height="40" fill="white"/>
</clipPath>
<clipPath id="clip1_49_218">
<rect width="40" height="40" fill="white"/>
</clipPath>
</defs>
</svg>
