<svg width="40" height="40" viewBox="0 0 40 40" fill="none" xmlns="http://www.w3.org/2000/svg">
<g clip-path="url(#clip0_49_210)">
<path d="M17.5 40C17.04 40 16.6667 39.6267 16.6667 39.1667V32.5C16.6667 32.04 17.04 31.6667 17.5 31.6667C17.96 31.6667 18.3333 32.04 18.3333 32.5V39.1667C18.3333 39.6267 17.96 40 17.5 40Z" fill="white"/>
<path d="M22.5 40C22.04 40 21.6667 39.6267 21.6667 39.1667V32.5C21.6667 32.04 22.04 31.6667 22.5 31.6667C22.96 31.6667 23.3333 32.04 23.3333 32.5V39.1667C23.3333 39.6267 22.96 40 22.5 40Z" fill="white"/>
<path d="M37.5 33.3333H2.5C1.12167 33.3333 0 32.2117 0 30.8333V9.16667C0 7.78833 1.12167 6.66667 2.5 6.66667H10.8333C11.2933 6.66667 11.6667 7.04 11.6667 7.5C11.6667 7.96 11.2933 8.33333 10.8333 8.33333H2.5C2.04167 8.33333 1.66667 8.70667 1.66667 9.16667V30.8333C1.66667 31.2933 2.04167 31.6667 2.5 31.6667H37.5C37.9583 31.6667 38.3333 31.2933 38.3333 30.8333V9.16667C38.3333 8.70667 37.9583 8.33333 37.5 8.33333H29.1667C28.7067 8.33333 28.3333 7.96 28.3333 7.5C28.3333 7.04 28.7067 6.66667 29.1667 6.66667H37.5C38.8783 6.66667 40 7.78833 40 9.16667V30.8333C40 32.2117 38.8783 33.3333 37.5 33.3333Z" fill="white"/>
<path d="M27.5 40H12.5C12.04 40 11.6667 39.6267 11.6667 39.1667C11.6667 38.7067 12.04 38.3333 12.5 38.3333H27.5C27.96 38.3333 28.3333 38.7067 28.3333 39.1667C28.3333 39.6267 27.96 40 27.5 40Z" fill="white"/>
<path d="M27.5 21.6667H12.5C12.04 21.6667 11.6667 21.2933 11.6667 20.8333V18.8817C11.6667 17.7683 12.1 16.7217 12.8867 15.935L15 13.8217V9.085C15 7.07333 15.675 5.08833 16.9017 3.495L19.34 0.326665C19.655 -0.083335 20.3467 -0.083335 20.6617 0.326665L23.1 3.49667C24.325 5.08833 25 7.07333 25 9.085V13.8217L27.1133 15.935C27.9 16.7217 28.3333 17.7683 28.3333 18.8817V20.8333C28.3333 21.2933 27.96 21.6667 27.5 21.6667ZM13.3333 20H26.6667V18.8817C26.6667 18.2133 26.4067 17.5867 25.935 17.1133L23.5783 14.7567C23.4217 14.6 23.3333 14.3883 23.3333 14.1667V9.085C23.3333 7.43833 22.7817 5.815 21.7767 4.51167L20 2.2L18.2233 4.51C17.2183 5.815 16.6667 7.43833 16.6667 9.085V14.1667C16.6667 14.3883 16.5783 14.6 16.4233 14.7567L14.0667 17.1133C13.5933 17.585 13.3333 18.2133 13.3333 18.8817V20Z" fill="white"/>
<path d="M24.1667 25C23.7067 25 23.3333 24.6267 23.3333 24.1667V20.8333C23.3333 20.3733 23.7067 20 24.1667 20C24.6267 20 25 20.3733 25 20.8333V24.1667C25 24.6267 24.6267 25 24.1667 25Z" fill="white"/>
<path d="M15.8333 25C15.3733 25 15 24.6267 15 24.1667V20.8333C15 20.3733 15.3733 20 15.8333 20C16.2933 20 16.6667 20.3733 16.6667 20.8333V24.1667C16.6667 24.6267 16.2933 25 15.8333 25Z" fill="white"/>
</g>
<defs>
<clipPath id="clip0_49_210">
<rect width="40" height="40" fill="white"/>
</clipPath>
</defs>
</svg>
